<?xml version="1.0" standalone="no"?>
<!DOCTYPE svg PUBLIC "-//W3C//DTD SVG 20010904//EN"
 "http://www.w3.org/TR/2001/REC-SVG-20010904/DTD/svg10.dtd">
<svg version="1.0" xmlns="http://www.w3.org/2000/svg"
 width="1002.000000pt" height="952.000000pt" viewBox="0 0 1002.000000 952.000000"
 preserveAspectRatio="xMidYMid meet">
<metadata>
Created by potrace 1.13, written by Peter Selinger 2001-2015
</metadata>
<g transform="translate(0.000000,952.000000) scale(0.100000,-0.100000)"
fill="#000000" stroke="none">
<path d="M4104 9105 c-133 -42 -246 -162 -274 -290 -7 -33 -16 -35 -85 -15
-256 74 -628 77 -945 8 -73 -15 -144 -33 -235 -59 -50 -15 -219 -70 -240 -79
-11 -4 -47 -18 -80 -31 -33 -12 -82 -32 -110 -45 -27 -12 -72 -32 -100 -44
-162 -71 -316 -159 -435 -248 -92 -68 -237 -208 -293 -282 -23 -30 -48 -61
-54 -68 -27 -28 -139 -232 -162 -294 l-10 -27 -90 6 c-266 17 -469 -125 -559
-392 -55 -162 -78 -385 -52 -490 32 -126 32 -126 90 -250 38 -80 72 -137 119
-200 53 -70 184 -183 252 -218 71 -35 168 -67 209 -67 24 0 27 -5 50 -94 33
-124 143 -450 201 -593 5 -13 13 -33 18 -45 5 -13 16 -39 24 -58 9 -19 25 -60
37 -90 12 -30 28 -71 37 -90 28 -65 32 -75 48 -123 25 -79 54 -196 71 -292 20
-112 23 -437 4 -545 -29 -173 -70 -355 -99 -440 -5 -14 -19 -59 -32 -100 -12
-41 -26 -79 -31 -85 -4 -5 -8 -19 -8 -30 0 -12 -3 -25 -7 -28 -5 -6 -52 -133
-70 -189 -8 -28 -18 -22 -44 29 -13 27 -43 67 -66 90 -35 36 -49 43 -80 43
-87 -2 -153 -66 -153 -150 0 -84 63 -241 152 -378 l41 -62 -13 -58 c-6 -31
-16 -75 -21 -97 -5 -22 -16 -96 -24 -165 -49 -419 132 -770 565 -1096 155
-116 362 -231 538 -300 50 -19 77 -35 82 -49 5 -12 11 -68 14 -126 4 -57 11
-132 16 -167 35 -232 36 -235 71 -352 46 -149 95 -225 173 -265 85 -45 296 22
347 110 40 68 13 193 -91 421 -48 105 -90 224 -90 258 0 20 -15 20 195 -5 296
-37 770 -3 1015 73 47 14 76 23 130 39 25 7 49 16 55 21 17 15 71 8 136 -18
205 -84 342 -128 499 -159 115 -23 221 -17 296 17 56 26 114 105 114 156 0 26
-44 108 -75 138 -44 44 -199 74 -383 74 -55 0 -103 4 -107 9 -3 6 21 28 54 50
l60 41 1601 0 1602 0 91 87 c51 48 494 486 985 974 l892 886 0 1680 c0 1615
-1 1681 -18 1696 -17 15 -67 17 -510 17 l-492 0 0 56 c0 30 4 97 10 147 5 51
14 151 20 222 6 72 15 167 20 213 6 45 14 119 20 165 5 45 14 127 20 182 6 55
15 139 20 188 6 48 15 128 20 177 6 50 15 132 20 183 6 50 15 133 21 182 5 50
15 129 21 178 18 144 222 127 -1542 127 l-1516 0 -30 -32 c-17 -18 -40 -40
-51 -50 -16 -12 -23 -32 -27 -85 -4 -37 -11 -102 -16 -143 -5 -41 -14 -122
-20 -180 -11 -109 -23 -219 -40 -367 -5 -49 -14 -133 -20 -188 -10 -97 -19
-178 -40 -362 -5 -49 -14 -135 -20 -193 -6 -58 -15 -136 -20 -175 -5 -38 -12
-104 -15 -145 -4 -42 -10 -81 -14 -88 -6 -9 -50 -12 -171 -10 l-163 3 -14 50
c-28 102 -36 131 -43 155 -4 14 -13 45 -20 70 -17 62 -49 161 -60 185 -5 11
-16 40 -24 65 -23 73 -77 204 -89 219 -9 11 -13 8 -19 -14 -5 -20 2 -48 24
-104 31 -77 94 -263 130 -381 39 -128 114 -429 132 -525 3 -16 11 -52 16 -80
18 -81 51 -273 69 -400 7 -44 16 -107 21 -140 51 -348 86 -820 100 -1360 12
-478 6 -693 -40 -1340 -17 -236 -66 -522 -109 -630 -5 -11 -14 -38 -20 -60
-14 -46 -24 -72 -66 -170 -50 -117 -171 -333 -218 -391 -9 -10 -36 -47 -62
-81 -54 -73 -210 -230 -303 -306 -75 -61 -246 -177 -261 -177 -5 0 -11 -4 -13
-9 -1 -5 -61 -37 -133 -71 -155 -74 -177 -83 -255 -110 -19 -7 -44 -16 -55
-20 -20 -9 -43 -15 -105 -30 -19 -5 -53 -14 -75 -20 -135 -37 -427 -72 -620
-74 -140 -1 -339 12 -375 24 -14 5 -47 11 -75 14 -76 9 -180 30 -275 55 -19 5
-46 13 -60 16 -14 4 -34 10 -45 14 -11 5 -38 14 -60 20 -42 13 -47 15 -135 51
-189 78 -431 215 -559 318 -41 33 -67 56 -187 168 -84 79 -193 233 -239 339
-9 22 -21 49 -26 60 -5 11 -18 55 -29 98 -17 64 -21 109 -21 243 0 91 3 170 7
176 4 6 9 29 11 52 3 23 12 66 20 96 8 30 18 71 23 90 4 19 19 70 34 112 14
42 26 85 26 96 0 10 14 57 31 103 17 46 34 95 39 109 5 14 22 63 40 110 67
181 138 405 165 525 30 133 34 150 47 230 17 105 17 507 0 590 -39 188 -89
353 -137 460 -116 253 -326 861 -312 899 3 6 31 17 63 24 86 20 195 73 236
116 46 47 82 122 102 209 28 122 19 427 -19 602 -60 282 -137 483 -215 563
-22 22 -69 54 -105 71 -36 17 -65 36 -65 42 0 20 80 170 134 252 127 193 304
358 522 490 53 32 249 129 364 180 105 46 328 123 520 178 121 34 310 65 484
79 192 15 331 3 546 -47 256 -59 526 -208 740 -409 39 -37 81 -66 105 -74 56
-17 160 -75 222 -122 29 -22 57 -37 63 -33 15 10 13 224 -4 289 -19 73 -98
238 -144 300 -20 27 -63 67 -96 88 -60 39 -62 40 -141 36 -122 -5 -214 -63
-262 -163 -9 -19 -20 -35 -25 -35 -4 0 -38 15 -75 34 -70 35 -143 69 -188 86
-14 5 -25 15 -25 22 0 50 73 173 128 216 52 41 72 50 147 67 59 14 74 14 143
1 106 -21 128 -28 213 -71 78 -38 151 -101 200 -172 37 -53 102 -186 117 -238
19 -70 42 -179 42 -202 0 -12 4 -32 9 -45 5 -13 15 -88 22 -168 9 -108 16
-151 29 -167 10 -12 20 -19 24 -16 17 18 -1 291 -29 418 -54 250 -147 442
-265 548 -136 122 -404 197 -546 152z m4783 -572 c-7 -73 -21 -205 -37 -343
-6 -47 -14 -128 -20 -180 -5 -52 -14 -138 -20 -190 -6 -52 -15 -135 -20 -185
-9 -86 -19 -177 -41 -370 -5 -49 -14 -130 -19 -180 -5 -49 -14 -133 -20 -185
-43 -387 -47 -440 -27 -440 9 0 18 4 21 9 7 11 46 21 46 13 1 -4 -284 -289
-632 -634 l-633 -628 -955 3 -955 2 -11 100 c-7 55 -17 152 -24 215 -6 63 -15
142 -20 175 -5 33 -14 98 -20 145 -6 47 -20 143 -32 213 l-21 129 126 126 125
127 7 80 c3 44 10 112 15 150 5 39 14 117 20 175 10 100 19 179 40 370 5 47
14 130 20 185 6 55 15 138 20 185 5 47 14 123 19 170 6 47 15 135 21 195 6 61
15 144 20 185 5 41 14 127 20 190 13 128 29 240 36 252 3 4 669 8 1481 8
l1476 0 -6 -67z m-7853 -948 c131 -25 246 -91 246 -141 0 -8 5 -14 10 -14 6 0
10 -7 10 -15 0 -8 5 -15 10 -15 6 0 10 -8 10 -18 0 -10 5 -23 12 -30 9 -9 4
-9 -23 -1 -85 27 -291 36 -341 15 -81 -34 -136 -105 -164 -211 -17 -61 -18
-292 -3 -367 39 -193 140 -349 264 -408 56 -27 73 -30 156 -30 71 0 110 6 161
23 37 13 71 26 75 30 12 12 23 7 23 -10 0 -19 -18 -79 -31 -105 -5 -10 -9 -25
-9 -33 0 -8 -4 -15 -10 -15 -5 0 -10 -5 -10 -12 0 -19 -64 -72 -116 -97 -27
-13 -57 -27 -66 -32 -10 -5 -30 -9 -45 -9 -16 0 -44 -5 -63 -10 -36 -11 -139
1 -187 21 -101 41 -150 75 -251 173 -141 137 -229 304 -267 504 -21 111 -1
301 47 447 67 200 204 329 387 361 88 16 88 16 175 -1z m4629 -952 c2 -5 -1
-44 -7 -87 l-10 -80 -100 -98 c-55 -54 -103 -98 -106 -98 -4 0 -12 26 -19 58
-7 31 -17 75 -21 97 -5 22 -14 65 -21 95 -6 30 -15 67 -19 82 -5 14 -6 29 -3
32 9 9 301 7 306 -1z m4157 -1656 l0 -1663 -402 -401 c-222 -221 -475 -472
-563 -559 -88 -86 -345 -340 -572 -565 l-412 -409 -1546 0 c-850 0 -1545 3
-1545 8 0 4 41 45 91 91 349 322 572 741 668 1251 44 240 71 671 71 1153 0
303 1 328 18 334 18 7 48 41 69 77 7 12 12 42 13 67 0 37 -6 52 -34 85 -18 21
-40 53 -48 69 -16 32 -31 210 -32 375 l-1 95 952 5 952 5 133 130 c73 72 308
304 523 516 214 213 451 446 524 518 l135 132 2 97 c1 73 21 221 33 250 1 1
219 2 486 2 l485 0 0 -1663z m-4171 -576 c26 -36 26 -48 1 -88 -31 -51 -40
-41 -40 42 0 41 4 75 9 75 5 0 19 -13 30 -29z m-4504 -1086 c36 -26 105 -152
105 -189 0 -20 -16 -67 -50 -151 -5 -11 -14 -38 -21 -60 -7 -22 -16 -44 -20
-48 -9 -11 -79 108 -119 200 -34 81 -47 174 -31 215 10 26 56 55 90 57 8 1 29
-10 46 -24z m3678 -2127 c75 -6 137 -14 137 -19 0 -4 -33 -9 -72 -11 -65 -3
-73 -5 -73 -23 0 -18 6 -20 66 -17 120 7 229 -34 229 -86 0 -24 -39 -85 -68
-107 -61 -45 -219 -45 -397 -1 -104 26 -405 134 -405 146 0 3 35 22 78 43 42
20 101 50 131 66 60 33 77 33 374 9z m-2431 -192 c66 -20 116 -34 195 -52 l72
-16 6 -42 c8 -49 25 -103 55 -171 47 -106 58 -131 79 -176 22 -51 42 -107 61
-181 21 -80 -4 -135 -75 -168 -24 -11 -46 -20 -49 -20 -4 0 -6 28 -6 63 0 99
-34 187 -61 160 -8 -8 -6 -28 5 -73 23 -90 18 -138 -18 -162 -26 -18 -76 -7
-118 24 -110 83 -183 354 -211 786 -3 47 0 49 65 28z"/>
<path d="M5969 8494 c-5 -6 -13 -53 -19 -105 -6 -52 -15 -132 -21 -179 -5 -47
-14 -123 -19 -170 -5 -47 -14 -124 -20 -172 -5 -49 -15 -127 -20 -175 -6 -49
-15 -126 -20 -173 -5 -47 -14 -124 -20 -172 -5 -49 -15 -127 -20 -175 -6 -49
-15 -126 -20 -173 -5 -47 -14 -123 -20 -170 -5 -47 -13 -118 -16 -157 l-7 -73
1401 0 c821 0 1403 4 1406 9 3 5 11 51 16 103 6 51 15 131 21 178 5 47 14 123
19 170 5 47 14 124 20 173 5 48 14 124 20 170 5 45 14 125 20 177 16 143 29
251 40 345 6 47 15 123 20 170 6 47 15 124 20 173 6 48 13 120 17 160 l6 72
-29 0 c-16 0 -645 1 -1397 3 -981 1 -1371 -1 -1378 -9z m1057 -535 c-11 -117
9 -109 -260 -109 l-233 0 -12 -72 c-6 -40 -16 -104 -22 -143 -6 -38 -14 -94
-20 -124 -5 -30 -9 -67 -9 -83 l0 -28 129 0 c81 0 132 4 136 11 4 6 9 37 12
69 l6 59 -74 3 -74 3 3 50 c2 28 7 66 11 85 l7 35 179 0 180 0 -1 -25 c-1 -25
-16 -133 -33 -245 -5 -33 -15 -94 -21 -135 -6 -41 -14 -78 -18 -82 -5 -5 -123
-7 -263 -6 -289 3 -259 -9 -244 101 l7 57 -71 0 c-52 0 -73 4 -77 14 -3 8 -1
45 5 82 5 38 19 134 30 214 12 80 24 153 27 162 4 14 20 18 82 20 l77 3 14 78
14 77 260 0 260 0 -7 -71z m1204 43 c0 -16 -7 -73 -15 -128 -22 -145 -34 -223
-43 -279 l-7 -50 -94 -3 c-105 -3 -112 0 -105 57 8 58 36 243 55 359 l12 72
99 0 98 0 0 -28z m-545 -189 c-14 -106 -19 -97 65 -103 86 -6 80 7 61 -130 -7
-47 -15 -105 -18 -130 -8 -65 -15 -70 -99 -70 l-73 0 -6 -37 c-3 -21 -9 -56
-13 -78 l-7 -40 -180 0 c-205 0 -185 -11 -170 97 l7 57 -73 3 -74 3 1 42 c1
44 21 195 33 248 7 29 10 30 67 33 100 4 100 4 107 70 11 99 -5 92 199 92
l181 0 -8 -57z m449 -475 c-13 -119 -7 -113 -114 -116 -51 -1 -97 1 -101 5 -7
7 5 121 17 161 2 8 32 12 104 12 l101 0 -7 -62z"/>
<path d="M7346 7672 c-6 -17 -20 -114 -33 -219 l-6 -53 131 0 c72 0 133 4 136
9 5 8 12 48 35 207 4 28 5 56 3 62 -2 8 -43 12 -132 12 -115 0 -129 -2 -134
-18z"/>
<path d="M6798 3277 c-15 -12 -37 -44 -48 -70 -20 -48 -20 -67 -20 -854 0
-602 3 -816 12 -846 7 -22 27 -56 45 -74 l34 -33 465 0 c529 0 501 -4 543 85
21 44 21 50 21 865 0 815 0 821 -21 865 -42 89 -14 85 -541 85 l-463 0 -27
-23z m956 -28 c64 -51 61 -1 61 -899 l0 -815 -24 -41 c-13 -23 -34 -47 -48
-53 -33 -15 -873 -15 -906 0 -14 6 -35 30 -48 53 l-24 41 0 815 c0 898 -3 848
61 899 26 21 36 21 464 21 428 0 438 0 464 -21z"/>
<path d="M7050 3129 c0 -82 -89 -367 -118 -377 -5 -1 -17 32 -27 75 -43 197
-76 293 -100 293 -18 0 -18 -4 0 -58 8 -23 33 -122 55 -220 22 -97 46 -202 54
-232 8 -30 23 -89 34 -130 11 -41 30 -122 42 -180 23 -110 32 -132 51 -113 8
8 8 25 1 60 -6 26 -16 75 -23 108 -12 60 -26 118 -54 220 -25 94 -23 94 71 23
85 -64 205 -186 251 -255 33 -48 34 -52 20 -80 -29 -55 -40 -165 -27 -265 19
-148 74 -328 101 -328 19 0 19 24 1 78 -49 140 -56 183 -57 334 0 202 14 210
94 51 30 -61 38 -93 24 -93 -12 0 -73 -60 -73 -71 0 -16 35 -10 58 11 45 42
55 28 112 -140 29 -88 60 -217 79 -329 11 -67 16 -79 28 -67 10 10 5 140 -7
186 -5 19 -14 58 -21 85 -14 61 -64 211 -90 272 -10 25 -17 49 -13 54 12 20
33 7 45 -26 13 -36 35 -46 45 -21 3 8 -2 28 -11 45 -9 18 -13 36 -10 41 15 24
34 5 63 -60 19 -43 37 -70 46 -70 23 0 20 21 -15 100 l-32 70 24 20 c13 10 27
19 32 20 11 0 9 28 -3 35 -6 3 -24 -4 -41 -16 -34 -24 -38 -22 -69 31 -7 11
-12 12 -20 4 -9 -9 -8 -20 5 -43 16 -32 13 -51 -8 -51 -7 0 -23 -9 -37 -20
-14 -11 -28 -20 -32 -20 -4 0 -22 28 -39 63 -51 101 -159 255 -238 339 -63 67
-185 168 -247 204 -18 10 -17 14 14 80 42 92 69 173 87 259 18 85 19 117 3
133 -21 21 -28 13 -28 -29z"/>
<path d="M7390 3148 c0 -13 14 -63 30 -113 17 -49 30 -97 30 -106 0 -18 -58
-64 -68 -54 -4 4 3 14 16 22 27 19 29 59 3 68 -27 8 -48 -3 -55 -31 -6 -24
-30 -32 -41 -14 -8 13 -42 13 -50 0 -4 -6 -1 -17 5 -25 7 -9 8 -15 2 -15 -18
0 -35 -56 -22 -79 11 -22 54 -29 65 -11 3 6 14 10 25 10 10 0 20 7 24 15 3 8
17 15 31 15 14 0 37 11 50 24 13 13 32 23 42 22 14 -1 18 6 16 34 -1 37 -60
226 -76 248 -15 19 -27 14 -27 -10z m-100 -314 c0 -8 -5 -12 -10 -9 -6 4 -8
11 -5 16 9 14 15 11 15 -7z"/>
<path d="M7188 2890 c-19 -15 -24 -26 -20 -46 3 -19 1 -25 -7 -20 -6 4 -11 12
-11 17 0 16 -37 51 -44 41 -3 -5 7 -43 21 -86 20 -56 32 -76 45 -76 11 0 18 7
18 19 0 14 5 18 20 14 23 -6 26 8 9 57 -10 27 -9 37 4 60 25 42 6 53 -35 20z
m2 -106 c0 -8 -4 -12 -10 -9 -5 3 -10 13 -10 21 0 8 5 12 10 9 6 -3 10 -13 10
-21z"/>
<path d="M7605 2536 c-16 -13 -35 -21 -42 -19 -7 3 -13 -2 -13 -11 0 -10 -9
-16 -24 -16 -14 0 -31 -7 -40 -15 -8 -8 -23 -15 -33 -15 -28 0 -43 -20 -43
-57 0 -43 23 -53 54 -24 12 11 32 21 43 21 11 0 27 7 34 16 7 9 23 20 35 25
13 4 24 17 26 28 3 20 5 20 31 6 25 -13 29 -12 34 1 5 14 -13 71 -26 79 -4 2
-20 -7 -36 -19z"/>
<path d="M4308 7886 c-128 -56 -157 -219 -56 -312 42 -38 79 -54 127 -54 129
0 228 142 179 257 -17 41 -68 92 -107 109 -40 17 -106 17 -143 0z"/>
<path d="M3982 7160 c-102 -46 -192 -137 -192 -196 0 -12 -12 -47 -26 -79 -37
-80 -53 -157 -54 -253 0 -107 25 -153 107 -199 36 -20 111 -16 150 8 37 23
123 123 123 144 0 21 106 124 144 140 19 8 51 15 70 15 70 0 208 46 232 78 8
11 13 47 14 97 0 75 -2 83 -30 117 -39 48 -160 99 -250 106 -42 3 -74 12 -89
23 -32 26 -140 25 -199 -1z m308 -74 c92 -23 152 -49 187 -82 30 -28 33 -37
33 -86 0 -83 -18 -94 -205 -132 -127 -25 -152 -43 -255 -181 -107 -143 -141
-163 -215 -125 -32 16 -50 35 -65 65 -23 47 -25 80 -10 157 25 125 57 197 75
168 8 -13 117 -13 152 1 127 51 196 115 227 212 6 20 6 20 76 3z"/>
<path d="M2820 7127 c-78 -25 -150 -129 -150 -217 0 -122 108 -230 230 -230
61 0 114 23 160 70 47 46 70 99 70 160 0 61 -23 114 -70 160 -65 65 -150 85
-240 57z"/>
<path d="M3025 4165 c-33 -33 -35 -40 -35 -100 0 -82 33 -172 102 -280 228
-356 384 -548 498 -613 47 -27 65 -32 123 -32 37 0 82 6 101 14 38 16 76 60
76 88 0 10 9 36 20 58 40 78 22 201 -46 318 -118 203 -425 484 -613 560 -37
15 -75 22 -122 22 -65 0 -70 -2 -104 -35z m258 -56 c83 -41 213 -144 338 -269
147 -146 231 -273 258 -391 21 -89 5 -88 -50 3 -57 95 -73 113 -88 104 -18
-11 -13 -35 18 -79 39 -58 60 -101 77 -159 14 -45 14 -52 -3 -80 -33 -57 -123
-73 -194 -35 -103 54 -222 191 -411 472 -140 207 -176 281 -185 369 -5 60 -4
63 23 85 42 33 127 25 217 -20z"/>
<path d="M3220 90 c0 -5 23 -10 50 -10 28 0 50 5 50 10 0 6 -22 10 -50 10 -27
0 -50 -4 -50 -10z"/>
</g>
</svg>
